<?xml version="1.0" standalone="no"?>
<!DOCTYPE svg PUBLIC "-//W3C//DTD SVG 20010904//EN"
 "http://www.w3.org/TR/2001/REC-SVG-20010904/DTD/svg10.dtd">
<svg version="1.0" xmlns="http://www.w3.org/2000/svg"
 width="291.000000pt" height="291.000000pt" viewBox="0 0 291.000000 291.000000"
 preserveAspectRatio="xMidYMid meet">
<metadata>
Created by potrace 1.11, written by Peter Selinger 2001-2013
</metadata>
<g transform="translate(0.000000,291.000000) scale(0.100000,-0.100000)"
fill="#000000" stroke="none">
<path d="M233 2863 c3 -27 19 -136 36 -243 17 -107 29 -201 26 -207 -2 -7 -1
-13 3 -13 9 0 32 -166 32 -227 0 -24 4 -43 9 -43 8 0 13 -29 31 -190 5 -41 13
-101 20 -133 6 -32 8 -63 4 -68 -3 -5 0 -16 6 -24 7 -8 10 -26 8 -40 -3 -14
-1 -28 3 -31 5 -3 9 -16 9 -29 0 -13 5 -27 11 -30 6 -4 8 -13 5 -20 -3 -8 1
-27 9 -43 8 -16 16 -42 18 -58 2 -16 18 -54 36 -84 26 -45 31 -63 27 -95 -4
-33 0 -45 20 -66 l25 -27 -45 -45 c-37 -36 -46 -51 -46 -80 0 -39 9 -45 64
-41 39 3 96 -18 96 -36 0 -5 -7 -7 -15 -4 -18 7 -19 0 -5 -27 8 -14 7 -19 -3
-19 -22 0 -80 31 -109 58 -15 14 -29 24 -31 21 -37 -49 -52 -185 -23 -201 9
-5 16 -19 16 -31 0 -13 5 -28 10 -33 8 -8 7 -20 -1 -40 -7 -16 -13 -47 -15
-69 -2 -22 -5 -60 -8 -85 -3 -35 2 -57 24 -100 15 -30 40 -94 55 -142 15 -48
34 -89 42 -92 8 -4 124 -13 257 -21 132 -8 309 -19 391 -25 83 -5 256 -17 385
-25 129 -8 272 -17 316 -21 l81 -6 12 -38 c6 -21 9 -44 6 -52 -8 -20 19 -40
47 -36 19 3 24 11 31 58 5 31 4 70 -1 90 -15 56 -10 101 13 114 11 6 25 18 31
26 10 12 18 11 55 -7 66 -33 129 -48 177 -44 9 1 10 12 6 40 -3 21 -1 47 4 58
8 14 8 23 0 31 -9 9 -7 17 8 33 15 16 19 36 19 88 0 52 5 74 24 104 13 22 25
55 27 75 6 81 15 102 46 102 18 0 20 4 15 35 -3 20 -2 35 4 35 6 0 8 4 4 9 -7
12 34 41 57 41 28 0 21 28 -12 45 -32 16 -38 33 -18 53 8 8 20 7 46 -3 46 -20
54 -19 40 6 -11 17 -10 22 5 33 9 7 17 18 17 23 0 15 -32 40 -62 47 -30 7 -40
30 -43 98 -1 26 -6 53 -12 60 -6 7 -15 26 -19 42 -8 32 -67 96 -89 96 -22 0
-36 35 -42 111 -3 38 -9 69 -13 69 -13 0 -34 62 -32 92 2 19 -2 28 -13 28 -8
0 -15 4 -15 9 0 5 -13 11 -29 14 -38 8 -95 59 -127 112 -14 24 -31 46 -39 49
-8 3 -15 17 -15 32 0 40 -34 87 -86 120 -29 18 -55 46 -71 76 -17 30 -48 64
-87 93 l-61 45 -17 -23 c-10 -12 -18 -29 -18 -38 0 -16 -40 -59 -54 -59 -4 0
-4 9 -1 20 4 13 2 20 -7 20 -7 0 -19 -9 -26 -20 -14 -23 -32 -26 -32 -5 0 21
67 83 105 96 24 9 31 17 27 31 -2 10 -8 18 -12 18 -4 0 -16 20 -26 44 -11 25
-27 47 -36 50 -10 2 -18 12 -18 23 0 10 -18 55 -41 100 -39 77 -43 82 -79 88
-21 4 -55 21 -77 38 -21 18 -57 45 -80 59 -23 15 -44 36 -48 47 -8 27 18 77
67 127 l39 41 -68 6 c-37 4 -319 7 -626 7 l-559 0 5 -47z m1247 -496 c-11 -25
-24 -48 -29 -51 -4 -3 -28 -2 -52 2 l-44 8 30 28 c27 26 105 69 112 62 2 -2
-6 -24 -17 -49z m-432 -29 c31 -32 28 -55 -8 -60 -25 -4 -35 1 -56 29 -14 18
-31 48 -39 66 l-14 34 47 -23 c26 -13 57 -33 70 -46z m142 5 c0 -36 -11 -53
-35 -53 -26 0 -46 21 -27 28 7 2 12 9 12 16 0 6 7 22 16 35 13 18 18 20 25 10
5 -8 9 -24 9 -36z m223 -46 c26 -11 21 -12 -45 -13 -99 -1 -133 -18 -132 -64
1 -44 47 -352 80 -526 33 -182 34 -176 -23 -172 l-48 3 -28 123 c-28 117 -30
122 -55 122 -16 0 -39 -13 -59 -32 -47 -46 -50 -29 -6 31 41 56 69 69 104 51
19 -11 21 -10 16 4 -17 44 -37 178 -35 231 2 33 2 93 0 134 l-2 74 -80 -7
c-44 -3 -87 -9 -97 -13 -12 -4 -15 -3 -8 4 9 9 161 30 220 31 11 0 49 7 85 15
80 19 79 19 113 4z m196 -22 c24 -12 24 -13 -23 -34 -60 -26 -87 -27 -117 -2
l-23 18 32 -5 c25 -3 32 -1 32 12 0 9 -4 16 -10 16 -5 0 -10 4 -10 10 0 12 86
2 119 -15z m-664 -3 c6 -4 10 -14 10 -22 0 -8 11 -17 25 -20 24 -6 24 -7 -10
-18 -25 -8 -52 -9 -93 -2 -81 13 -86 19 -36 46 45 23 86 30 104 16z m450 -12
c13 -21 -8 -72 -44 -111 -21 -21 -42 -39 -47 -39 -12 0 -6 89 8 117 6 12 23
27 37 32 35 13 39 13 46 1z m-295 -50 c0 -16 -4 -30 -9 -30 -5 0 -12 -12 -16
-27 -3 -14 -15 -38 -26 -51 l-19 -25 0 76 c0 79 2 82 53 86 13 1 17 -7 17 -29z
m60 7 c0 -13 -9 -32 -20 -42 -23 -20 -25 -12 -9 34 13 37 29 41 29 8z m393
-161 l28 -17 -46 -31 -47 -31 -24 25 c-25 25 -41 85 -31 113 5 12 13 10 49
-14 24 -15 56 -36 71 -45z m39 -53 c-71 -63 -112 -133 -148 -253 -19 -62 -23
-69 -23 -40 -1 42 20 123 50 197 17 43 31 59 78 89 31 20 65 43 76 50 39 26
29 13 -33 -43z m71 3 c9 -7 17 -19 17 -26 0 -8 -6 -10 -17 -5 -10 4 -26 10
-36 12 -14 4 -15 8 -6 19 14 17 19 17 42 0z m-23 -54 c22 -22 40 -46 40 -55 0
-22 12 -21 27 2 6 10 21 21 32 24 26 7 26 3 0 -22 -13 -12 -17 -21 -10 -26 18
-10 13 -25 -9 -25 -11 0 -20 5 -20 10 0 6 -6 10 -13 10 -7 0 -17 15 -22 33 -7
23 -21 38 -52 53 -23 12 -39 24 -36 28 12 11 22 6 63 -32z m-223 -20 l33 -27
-21 -67 -21 -67 -24 16 c-14 9 -23 22 -20 29 3 8 0 27 -7 44 -7 16 -11 45 -9
65 5 43 24 45 69 7z m201 -14 c21 -17 14 -27 -25 -33 -60 -10 -76 -16 -67 -25
5 -4 17 -10 27 -12 17 -3 16 -6 -7 -33 -14 -16 -26 -34 -26 -38 0 -5 -4 -5
-10 -2 -25 15 2 126 37 153 17 12 48 8 71 -10z m-546 -86 c34 -20 34 -24 7
-62 l-22 -29 -34 42 c-20 23 -41 46 -49 50 -8 4 -14 13 -14 19 0 15 76 2 112
-20z m322 -160 c8 -13 -17 -102 -29 -102 -10 0 -35 101 -35 139 0 12 53 -20
64 -37z m16 -81 c-6 -39 -16 -71 -22 -71 -6 0 -7 8 -3 18 4 9 12 43 18 74 15
82 21 64 7 -21z m160 -59 c-27 -4 -34 2 -26 24 6 15 8 15 27 -2 l21 -19 -22
-3z m265 8 c3 -5 -3 -10 -15 -10 -12 0 -18 5 -15 10 3 6 10 10 15 10 5 0 12
-4 15 -10z m-1103 -117 l3 -88 40 0 40 0 3 88 3 88 37 -3 c47 -4 46 -1 37
-235 l-7 -183 -34 0 -34 0 0 95 0 95 -45 0 -45 0 0 -95 0 -95 -35 0 -35 0 0
210 0 210 35 0 34 0 3 -87z m410 -98 c20 -99 39 -192 42 -207 5 -26 3 -28 -29
-28 -28 0 -36 4 -39 23 -16 80 -15 77 -51 77 -35 0 -37 -2 -50 -67 -6 -30 -10
-33 -42 -33 -31 0 -35 2 -30 23 3 12 22 107 43 210 l37 188 41 -3 41 -3 37
-180z m268 170 c39 -20 50 -43 50 -105 0 -40 -5 -56 -24 -75 l-24 -24 22 -73
c42 -135 42 -128 -2 -128 l-39 0 -24 92 c-18 67 -30 94 -42 96 -15 3 -17 -8
-17 -92 l0 -96 -40 0 -40 0 0 210 0 210 75 0 c48 0 87 -6 105 -15z m285 0 c21
-8 39 -25 45 -40 14 -38 13 -278 -2 -310 -18 -40 -57 -55 -143 -55 l-75 0 0
210 0 210 70 0 c39 0 86 -6 105 -15z m178 -55 c10 -36 22 -69 27 -73 4 -5 18
25 30 67 23 75 23 76 56 76 19 0 34 -4 34 -8 0 -4 -18 -62 -40 -127 -34 -101
-40 -132 -40 -203 l0 -83 -37 3 -38 3 -1 85 c-1 72 -8 104 -43 205 -22 65 -41
121 -41 123 0 2 17 2 37 0 36 -3 37 -4 56 -68z m420 -125 l-2 -190 -26 -22
c-18 -16 -39 -23 -66 -23 -34 0 -39 3 -39 23 0 16 9 26 30 34 l30 11 0 182 0
181 38 -3 37 -3 -2 -190z m-498 66 c-11 -11 -24 16 -29 64 l-6 50 20 -54 c11
-30 18 -57 15 -60z m-295 -61 c0 -65 -9 -79 -34 -51 -16 18 -16 22 -2 50 9 16
16 39 16 51 0 12 5 18 10 15 6 -3 10 -33 10 -65z m310 30 c26 -26 25 -32 -10
-70 l-30 -32 0 61 c0 65 8 73 40 41z m23 -90 c3 -11 1 -20 -4 -20 -5 0 -9 -10
-9 -22 0 -20 -1 -20 -20 -3 -18 16 -18 18 -2 41 21 29 28 30 35 4z m-484 -52
c6 -26 11 -72 11 -102 0 -60 4 -65 31 -40 10 9 25 14 33 11 12 -5 10 -15 -11
-59 -24 -49 -26 -51 -34 -30 -8 22 -14 24 -64 20 l-56 -3 3 35 c3 30 7 35 31
38 l27 3 0 97 c0 101 9 110 29 30z m108 10 c-3 -8 -6 -5 -6 6 -1 11 2 17 5 13
3 -3 4 -12 1 -19z m53 -5 c0 -16 -9 -39 -19 -52 l-19 -24 -6 21 c-5 14 -1 33
11 52 22 37 33 38 33 3z m-723 -113 c9 -19 22 -47 30 -62 l14 -28 -55 0 c-55
0 -55 0 -53 30 1 16 8 32 15 35 7 2 12 21 12 43 0 41 13 66 18 35 2 -10 10
-34 19 -53z m217 -46 c13 -33 6 -44 -24 -44 l-31 0 16 30 c17 33 30 38 39 14z
m508 -11 l42 -28 -32 -3 c-31 -3 -32 -5 -32 -48 0 -24 -5 -44 -10 -44 -16 0
-60 47 -60 64 0 21 32 86 42 86 5 0 27 -12 50 -27z m745 -69 c29 -18 51 -83
32 -95 -26 -16 -45 -9 -60 24 -24 56 -89 46 -89 -14 0 -24 15 -43 71 -97 99
-93 121 -152 80 -218 -38 -62 -138 -69 -185 -14 -21 26 -44 87 -34 94 1 2 15
6 30 10 24 5 27 2 40 -37 11 -37 17 -42 45 -45 24 -2 34 2 43 18 20 38 2 77
-65 137 -96 87 -116 143 -75 210 30 51 109 64 167 27z m-1380 -17 c24 -24 28
-35 28 -92 0 -57 -3 -68 -28 -92 -21 -22 -39 -29 -85 -33 l-57 -5 -3 -102 -3
-103 -34 0 -35 0 0 231 0 231 95 -4 c88 -3 97 -5 122 -31z m59 -15 c-12 -11
-18 7 -10 30 l8 23 4 -23 c2 -13 1 -26 -2 -30z m104 -157 l0 -205 55 0 c52 0
55 -1 55 -25 0 -25 0 -25 -95 -25 l-95 0 0 230 0 230 40 0 40 0 0 -205z m334
158 c4 -27 23 -128 43 -226 20 -97 34 -179 32 -181 -2 -3 -18 -6 -34 -8 -29
-3 -30 -1 -39 50 l-9 52 -43 0 c-39 0 -44 -3 -50 -27 -15 -72 -20 -78 -50 -75
-16 2 -31 5 -33 7 -3 4 74 409 84 443 3 7 22 12 49 12 l44 0 6 -47z m209 10
c9 -21 33 -77 53 -126 20 -48 40 -90 45 -93 5 -3 9 54 9 125 l0 131 30 0 30 0
0 -230 0 -230 -24 0 c-21 0 -29 15 -76 128 -28 70 -56 131 -61 136 -5 6 -9
-45 -9 -127 l0 -137 -35 0 -35 0 0 230 0 230 28 0 c24 0 32 -7 45 -37z m447
13 c0 -21 -5 -25 -37 -28 l-38 -3 -3 -202 -2 -203 -35 0 -35 0 0 205 0 205
-40 0 c-36 0 -40 3 -40 25 l0 25 115 0 115 0 0 -24z m-880 -61 c21 -48 19 -80
-5 -104 -13 -13 -19 -11 -50 19 -26 25 -33 39 -29 54 9 26 45 76 56 76 5 0 17
-20 28 -45z m-215 15 c3 -5 1 -10 -4 -10 -6 0 -11 5 -11 10 0 6 2 10 4 10 3 0
8 -4 11 -10z m-10 -139 c-15 -15 -15 -14 -6 12 6 16 12 45 13 65 1 30 2 28 5
-12 3 -36 0 -53 -12 -65z m170 19 c10 -11 38 -31 61 -45 38 -23 57 -45 38 -45
-13 0 -134 91 -134 101 0 15 16 10 35 -11z m117 -30 c-4 -28 -6 -31 -12 -15
-4 11 -2 28 4 37 14 22 15 20 8 -22z m-122 -36 c0 -17 -4 -22 -15 -18 -9 4
-15 19 -15 36 0 26 2 29 15 18 8 -7 15 -23 15 -36z m89 -38 c8 -10 10 -30 6
-58 l-7 -43 -44 3 c-39 4 -44 7 -44 29 0 15 12 37 31 54 35 33 42 35 58 15z
m174 -93 c3 -10 8 -35 12 -55 4 -29 11 -38 25 -38 13 0 20 -7 20 -19 0 -11 3
-27 7 -37 5 -14 2 -16 -15 -12 -21 6 -22 3 -22 -48 0 -53 -1 -54 -29 -54 -16
0 -32 5 -34 10 -3 6 -4 5 -3 -2 3 -17 76 -23 90 -7 6 6 6 9 1 6 -6 -3 -11 13
-12 39 -1 24 3 44 8 44 5 0 9 -8 9 -17 0 -15 2 -14 14 3 22 29 26 14 13 -40
-8 -32 -20 -52 -32 -57 -18 -7 -18 -8 3 -8 21 -1 23 -5 20 -48 -3 -55 -13 -60
-103 -48 -56 7 -68 19 -80 83 -6 29 -5 32 19 32 14 0 26 4 26 10 0 5 -7 7 -16
3 -14 -5 -16 1 -13 45 2 28 2 49 0 46 -10 -10 -31 21 -31 47 0 22 5 29 19 29
20 0 26 10 37 73 5 32 10 37 34 37 19 0 30 -6 33 -17z m-213 -152 c0 -10 9
-21 21 -24 17 -5 20 -12 17 -44 -4 -48 -21 -46 -29 4 l-6 38 -2 -42 c-2 -70
-21 -49 -21 22 0 37 4 65 10 65 6 0 10 -8 10 -19z m340 9 c0 -5 -5 -10 -11
-10 -5 0 -7 5 -4 10 3 6 8 10 11 10 2 0 4 -4 4 -10z m120 -55 c0 -37 -4 -65
-10 -65 -6 0 -10 28 -10 65 0 37 4 65 10 65 6 0 10 -28 10 -65z m191 43 c0 -7
1 -34 2 -61 3 -60 -16 -57 -24 4 -7 47 -3 69 12 69 5 0 9 -6 10 -12z m-961
-35 c0 23 20 22 21 0 1 -17 2 -17 6 0 2 9 9 17 15 17 6 0 7 -16 3 -42 -9 -53
-12 -56 -30 -32 -13 17 -14 17 -15 2 0 -10 -4 -18 -9 -18 -10 0 -21 35 -21 70
1 24 1 24 15 6 13 -17 15 -18 15 -3z m81 0 c1 -17 2 -17 6 0 5 20 19 22 26 5
4 -10 8 -9 16 2 8 12 11 8 11 -17 0 -37 -9 -63 -21 -63 -5 0 -9 10 -10 23 l0
22 -11 -22 c-12 -26 -28 -30 -28 -9 0 7 -3 28 -6 45 -4 20 -3 31 5 31 6 0 12
-8 12 -17z m93 5 c5 -10 7 -10 12 0 8 18 24 15 25 -5 1 -17 2 -17 6 0 9 34 24
17 17 -20 -9 -50 -21 -62 -33 -32 -10 24 -10 24 -10 2 -1 -13 -5 -23 -11 -23
-9 0 -13 12 -25 73 -4 20 10 23 19 5z m244 -35 c3 -40 2 -42 -25 -40 -31 3
-45 33 -19 43 9 3 16 10 16 15 0 4 -7 6 -15 3 -8 -4 -15 -2 -15 3 0 16 13 24
35 21 16 -2 21 -12 23 -45z m232 -8 c0 -37 -4 -55 -12 -55 -9 0 -12 16 -10 55
5 71 22 71 22 0z m80 14 c0 -32 -4 -42 -20 -46 -11 -3 -20 -12 -20 -19 0 -8
-4 -14 -10 -14 -6 0 -10 27 -10 60 l0 60 30 0 c28 0 30 -2 30 -41z m110 -4 c0
-41 -2 -45 -24 -45 -32 0 -41 26 -16 47 11 10 20 21 20 26 0 5 -7 4 -15 -3
-12 -10 -15 -10 -15 4 0 10 9 16 25 16 23 0 25 -4 25 -45z m80 0 c0 -25 -4
-45 -10 -45 -5 0 -10 16 -10 35 0 19 -4 35 -10 35 -5 0 -10 -16 -10 -35 0 -19
-4 -35 -10 -35 -5 0 -10 20 -10 45 0 43 1 45 30 45 29 0 30 -2 30 -45z m110
35 c0 -5 -5 -10 -10 -10 -6 0 -3 -11 6 -26 12 -17 14 -28 7 -35 -13 -13 -48
-8 -44 6 1 6 10 8 19 7 13 -3 12 2 -7 21 -12 14 -20 30 -16 36 8 14 45 14 45
1z m108 -9 c3 -9 -2 -11 -17 -6 -18 5 -21 2 -21 -19 0 -14 5 -26 10 -26 6 0
10 5 10 12 0 9 3 9 12 0 16 -16 -3 -35 -28 -30 -20 3 -31 46 -20 75 7 18 48
14 54 -6z m67 -26 c0 -36 -2 -40 -25 -40 -20 0 -26 6 -28 28 -5 42 5 59 30 55
20 -3 23 -9 23 -43z m115 0 c0 -25 -4 -45 -10 -45 -5 0 -10 18 -10 41 0 24 -4
38 -10 34 -5 -3 -10 -22 -10 -41 0 -49 -20 -42 -21 9 l-2 42 -6 -38 c-8 -52
-25 -51 -29 1 l-3 42 50 0 51 0 0 -45z m-1050 -35 c0 -5 -4 -10 -10 -10 -5 0
-10 5 -10 10 0 6 5 10 10 10 6 0 10 -4 10 -10z m800 0 c0 -5 -4 -10 -10 -10
-5 0 -10 5 -10 10 0 6 5 10 10 10 6 0 10 -4 10 -10z"/>
<path d="M1052 1329 c-16 -88 -16 -89 14 -89 24 0 25 2 19 43 -4 23 -10 58
-14 77 -7 34 -8 32 -19 -31z"/>
<path d="M1310 1395 c0 -62 1 -65 24 -65 34 0 56 25 56 65 0 40 -22 65 -56 65
-23 0 -24 -3 -24 -65z m40 -6 c0 -37 -4 -49 -15 -49 -11 0 -15 12 -15 48 0 27
3 52 6 55 15 14 24 -7 24 -54z"/>
<path d="M1606 1452 c-3 -3 -6 -74 -6 -159 0 -141 1 -153 18 -153 10 0 27 6
38 14 17 13 19 28 20 123 1 141 -4 165 -38 174 -15 4 -29 4 -32 1z m44 -27
c15 -18 6 -45 -15 -45 -10 0 -15 10 -15 30 0 33 11 38 30 15z m10 -78 c0 -16
-9 -28 -25 -35 -23 -11 -25 -10 -25 13 0 21 21 44 43 45 4 0 7 -11 7 -23z"/>
<path d="M740 865 l0 -75 34 0 c41 0 56 17 63 68 7 49 -21 82 -67 82 l-30 0 0
-75z"/>
<path d="M1317 860 c-6 -16 -27 -139 -27 -158 0 -7 14 -12 31 -12 l31 0 -7 58
c-10 83 -21 130 -28 112z m16 -122 c4 -29 2 -38 -9 -38 -15 0 -19 35 -8 65 8
21 10 18 17 -27z"/>
<path d="M1358 473 c7 -3 16 -2 19 1 4 3 -2 6 -13 5 -11 0 -14 -3 -6 -6z"/>
<path d="M1310 440 c-19 -4 -27 -8 -17 -9 20 -1 23 -17 5 -24 -8 -3 -6 -6 5
-6 9 -1 17 6 17 14 0 8 7 15 15 15 8 0 15 5 15 10 0 6 -1 9 -2 9 -2 -1 -19 -5
-38 -9z"/>
<path d="M1342 390 c0 -19 2 -27 5 -17 2 9 2 25 0 35 -3 9 -5 1 -5 -18z"/>
<path d="M1210 369 c0 -5 5 -7 10 -4 6 3 10 8 10 11 0 2 -4 4 -10 4 -5 0 -10
-5 -10 -11z"/>
<path d="M1527 413 c-11 -10 -8 -53 3 -53 6 0 10 14 10 30 0 31 -2 35 -13 23z"/>
<path d="M2000 385 c0 -14 5 -25 10 -25 6 0 10 11 10 25 0 14 -4 25 -10 25 -5
0 -10 -11 -10 -25z"/>
<path d="M2191 164 c0 -11 3 -14 6 -6 3 7 2 16 -1 19 -3 4 -6 -2 -5 -13z"/>
<path d="M2223 170 c2 -8 10 -15 17 -15 7 0 15 7 17 15 4 13 3 13 -6 0 -10
-13 -12 -13 -22 0 -9 13 -10 13 -6 0z"/>
</g>
</svg>
